<mxfile host="www.draw.io" modified="2019-11-28T23:16:18.320Z" agent="Mozilla/5.0 (Macintosh; Intel Mac OS X 10_14_5) AppleWebKit/605.1.15 (KHTML, like Gecko) Version/12.1.1 Safari/605.1.15" etag="0ACDbZrc7f0igKejoJFS" version="12.3.3" type="github" pages="1">
  <diagram id="tEUZ7eTgIlQmSOjJ-7Xw" name="Page-1">
    <mxGraphModel dx="1026" dy="492" grid="1" gridSize="10" guides="1" tooltips="1" connect="1" arrows="1" fold="1" page="1" pageScale="1" pageWidth="827" pageHeight="1169" math="0" shadow="0">
      <root>
        <mxCell id="0"/>
        <mxCell id="1" parent="0"/>
        <mxCell id="F_5JLeAmHHanwswDPZu3-1" value="Pool" style="swimlane;html=1;childLayout=stackLayout;resizeParent=1;resizeParentMax=0;horizontal=1;startSize=20;horizontalStack=0;" vertex="1" parent="1">
          <mxGeometry x="130" y="40" width="480" height="380" as="geometry"/>
        </mxCell>
        <mxCell id="F_5JLeAmHHanwswDPZu3-2" value="Lane 1" style="swimlane;html=1;startSize=20;horizontal=0;" vertex="1" parent="F_5JLeAmHHanwswDPZu3-1">
          <mxGeometry y="20" width="480" height="120" as="geometry"/>
        </mxCell>
        <mxCell id="F_5JLeAmHHanwswDPZu3-3" value="Lane 2" style="swimlane;html=1;startSize=20;horizontal=0;" vertex="1" parent="F_5JLeAmHHanwswDPZu3-1">
          <mxGeometry y="140" width="480" height="120" as="geometry"/>
        </mxCell>
        <mxCell id="F_5JLeAmHHanwswDPZu3-4" value="Lane 3" style="swimlane;html=1;startSize=20;horizontal=0;" vertex="1" parent="F_5JLeAmHHanwswDPZu3-1">
          <mxGeometry y="260" width="480" height="120" as="geometry"/>
        </mxCell>
      </root>
    </mxGraphModel>
  </diagram>
</mxfile>
